<svg width="249" height="199" viewBox="0 0 249 199" fill="none" xmlns="http://www.w3.org/2000/svg">
<g clip-path="url(#clip0)">
<path d="M86.3894 147.812C85.7762 147.813 85.2991 147.747 84.8902 147.682C84.1404 147.551 83.6629 147.286 83.3212 146.821C82.9796 146.357 82.5698 145.892 82.1598 145.362C81.8866 145.03 81.8179 144.764 81.8855 144.498C81.953 144.232 81.9526 144.033 81.8162 143.967C81.4746 143.502 81.3373 143.038 81.3363 142.572C81.4035 142.107 81.4025 141.642 81.4695 141.11C81.5371 140.844 81.6045 140.512 81.6722 140.312C81.7398 140.046 81.8074 139.78 81.8749 139.514C81.9421 139.049 81.8731 138.65 81.6681 138.385C81.395 138.12 81.3262 137.788 81.3935 137.389C81.7977 135.195 82.3378 132.868 83.0139 130.341C83.6899 127.815 84.2979 125.355 84.9062 123.027C85.0413 122.496 85.3128 121.963 85.6526 121.564C85.9924 121.164 86.2641 120.765 86.2636 120.499C86.2636 120.499 90.0097 119.893 90.3533 121.288C90.6281 122.351 89.7443 123.283 89.5422 124.347C89.4749 124.746 89.2033 125.211 88.7955 125.677C88.3878 126.21 88.1164 126.742 88.0495 127.34C87.7797 128.604 87.4418 129.933 87.0358 131.263C86.6298 132.593 86.2918 133.857 86.022 135.186C85.9549 135.651 85.8876 136.05 85.8204 136.516C85.7532 136.915 85.686 137.38 85.6187 137.779C85.551 137.978 85.5514 138.178 85.4837 138.377C85.416 138.577 85.3483 138.776 85.3487 138.975C85.2815 139.441 85.3505 139.839 85.6238 140.171C85.4881 140.437 85.4205 140.703 85.3528 140.903C85.3529 140.969 85.3532 141.102 85.3538 141.368C85.3543 141.634 85.4229 141.833 85.4234 142.099C85.424 142.364 85.4927 142.63 85.5613 142.829C85.5615 142.962 85.0873 144.226 87.4047 144.62C87.4047 144.62 89.3168 146.676 87.8193 147.343C86.3894 147.812 86.3894 147.812 86.3894 147.812Z" fill="#00BBC4"/>
<path d="M65.9884 134.63C65.9201 134.564 65.9198 134.431 65.9195 134.298C65.987 133.966 66.1223 133.5 66.3254 132.902C66.5286 132.303 66.7997 131.638 67.071 131.04C67.3421 130.374 67.5454 129.842 67.8168 129.31C68.0201 128.778 68.2238 128.445 68.2915 128.246C68.4951 127.847 68.6305 127.448 68.8343 127.182C68.97 126.915 69.1739 126.649 69.3096 126.383C69.5134 126.117 69.7174 125.917 69.9217 125.85C69.9215 125.784 70.1252 125.451 70.4645 124.786C70.8038 124.121 71.2111 123.389 71.6865 122.657C72.1617 121.858 72.6373 121.193 73.1811 120.593C73.7249 119.994 74.1331 119.728 74.4739 119.793C74.6785 119.859 74.8829 119.859 75.1557 119.991C75.4284 120.057 75.6329 120.123 75.8375 120.189C76.1102 120.255 76.4507 120.188 76.791 119.988C77.1312 119.788 77.3356 119.787 77.3359 119.92C77.4726 120.119 77.609 120.185 77.8135 120.251C78.2225 120.317 78.5632 120.316 79.04 120.249C79.4487 120.182 79.8575 120.181 80.2664 120.246C80.4027 120.246 80.5391 120.312 80.6756 120.445C80.812 120.511 80.9485 120.577 81.0849 120.643C81.2211 120.643 81.3574 120.643 81.4935 120.576C81.6974 120.31 81.8337 120.309 81.9018 120.309L82.0381 120.309C82.3797 120.773 82.7211 121.105 82.9938 121.171C83.2666 121.303 83.6074 121.369 84.0845 121.434L84.289 121.5C84.6299 121.566 84.971 121.765 85.3123 122.096C85.6537 122.428 85.9952 122.826 86.2686 123.224C86.542 123.622 86.7474 124.087 86.8845 124.485C87.0217 124.95 87.0906 125.282 87.0232 125.615C87.0233 125.681 86.9553 125.748 86.9554 125.814C86.9556 125.881 86.8876 125.947 86.8877 126.014C86.8206 126.479 86.8897 126.944 87.0952 127.475C87.3007 128.007 87.3699 128.472 87.2347 129.004C87.235 129.136 87.167 129.203 87.0307 129.203C86.8945 129.204 86.7583 129.27 86.6902 129.27C86.5539 129.271 86.4178 129.337 86.2817 129.404C86.1455 129.471 86.078 129.737 86.0105 130.069L85.8761 130.934C85.8084 131.133 85.8087 131.266 85.8091 131.465C85.8094 131.598 85.7416 131.798 85.6058 131.997C85.6742 132.13 85.7426 132.263 85.811 132.396C85.8795 132.528 85.9479 132.661 85.8802 132.861C85.8804 132.994 85.8124 133.06 85.7443 133.06C85.6763 133.127 85.6085 133.26 85.5408 133.459C85.5409 133.526 85.5412 133.659 85.5413 133.725C85.5416 133.858 85.5417 133.925 85.5419 133.991C85.4743 134.257 85.3386 134.523 85.0663 134.657C84.7941 134.79 84.59 134.923 84.522 134.99C84.454 135.057 84.3857 134.99 84.3173 134.858C84.2489 134.725 84.1804 134.592 84.1123 134.592C84.0442 134.592 83.9762 134.659 83.9083 134.792C83.8405 134.925 83.8406 134.991 83.7722 134.859C83.7727 135.125 83.7733 135.39 83.7739 135.656C83.7744 135.922 83.7069 136.188 83.6393 136.454C83.5717 136.72 83.504 136.919 83.3682 137.119C83.2323 137.319 83.0966 137.585 82.9609 137.851C82.8932 138.05 82.8936 138.25 82.826 138.516C82.7585 138.782 82.6909 139.048 82.6233 139.314C82.5557 139.579 82.4882 139.845 82.4204 140.045C82.3527 140.244 82.2849 140.378 82.1486 140.378C81.8763 140.511 81.6725 140.778 81.4689 141.177C81.2654 141.576 81.1298 141.908 80.9944 142.307C80.859 142.706 80.7234 143.039 80.5195 143.305C80.3838 143.571 80.1797 143.705 79.9753 143.705C79.9072 143.705 79.8389 143.639 79.7026 143.639C79.6343 143.573 79.4981 143.573 79.3618 143.573C79.0224 144.172 78.751 144.704 78.5474 145.104C78.2757 145.503 78.0719 145.769 77.868 146.035C77.6642 146.302 77.3922 146.568 77.1201 146.768C76.848 146.968 76.5079 147.234 76.236 147.567C75.6911 147.635 75.2143 147.702 74.9419 147.769C74.6013 147.837 74.3287 147.771 73.988 147.771C73.7834 147.705 73.5108 147.639 73.3061 147.507C73.1015 147.441 72.8973 147.508 72.7611 147.575C72.5569 147.641 72.3526 147.708 72.2162 147.642C71.671 147.577 71.2616 147.312 70.9881 146.847C70.7147 146.449 70.3735 146.184 70.0326 146.118C69.1456 145.522 68.3945 144.726 67.847 143.598C67.2995 142.469 66.8205 141.473 66.4096 140.477C66.4773 140.278 66.4084 139.946 66.4076 139.547C66.3385 139.082 66.2694 138.617 66.2001 138.085C66.1308 137.554 66.0617 137.089 65.9926 136.624C65.9235 136.159 65.9228 135.827 65.9904 135.561C65.9902 135.494 66.0581 135.361 66.1259 135.228C66.1938 135.095 66.1935 134.962 66.1935 134.962L65.9884 134.63ZM67.7678 138.348C67.8351 137.949 67.7664 137.683 67.4938 137.684L67.3577 137.751C67.29 137.95 67.2904 138.15 67.2907 138.283C67.291 138.415 67.4274 138.482 67.7682 138.547L67.7678 138.348ZM69.6678 134.689C69.6677 134.623 69.6677 134.623 69.7357 134.556C69.7355 134.49 69.7355 134.49 69.8037 134.489L69.8717 134.423C69.8714 134.29 69.8711 134.157 69.8028 134.091L69.7345 134.024C69.6664 134.025 69.5983 134.025 69.4622 134.091C69.326 134.158 69.258 134.225 69.2582 134.291C69.2583 134.358 69.3266 134.424 69.3949 134.49C69.5995 134.623 69.6678 134.689 69.6678 134.689ZM70.6876 133.624C70.6873 133.491 70.6872 133.424 70.5506 133.292L70.4835 133.757L70.6876 133.624ZM70.6238 135.684C70.8965 135.75 71.1008 135.683 71.1686 135.55C71.2365 135.417 71.2363 135.35 71.3726 135.35C71.2358 135.084 71.1674 134.952 71.1674 134.952C71.0992 134.952 71.0311 134.952 70.8951 135.085C70.8271 135.152 70.623 135.285 70.4186 135.286L70.6238 135.684ZM69.209 143.263C69.2088 143.196 69.2768 143.129 69.3451 143.196L69.2088 143.196L69.2084 142.997C69.2087 143.13 69.1406 143.13 69.0043 143.13L68.868 143.13L69.209 143.263ZM71.7768 133.156C71.8445 132.957 71.8442 132.824 71.9122 132.757C71.9802 132.691 71.8438 132.624 71.5711 132.559C71.5712 132.625 71.5034 132.758 71.5037 132.891C71.4358 133.024 71.5042 133.157 71.7089 133.289L71.7771 133.289L71.7768 133.156ZM70.8996 137.212C70.9677 137.212 71.0359 137.211 71.0357 137.145L71.0356 137.079C71.1036 137.012 71.1034 136.945 71.0352 136.879C70.9669 136.813 70.9667 136.746 71.0347 136.68C70.8989 136.879 70.8309 136.946 70.8307 136.88C70.8306 136.813 70.7626 136.88 70.7629 137.013C70.763 137.079 70.7632 137.146 70.8313 137.145L70.8996 137.212ZM81.7288 135.195C81.7964 134.929 81.864 134.663 81.9316 134.397C81.9993 134.198 82.0668 133.932 82.0664 133.733C82.134 133.467 82.0652 133.135 81.928 132.736C81.7911 132.404 81.7224 132.138 81.7902 132.005C81.79 131.872 81.9259 131.739 82.1299 131.539C82.3339 131.34 82.4696 131.074 82.5372 130.808C82.6721 130.143 82.6707 129.478 82.6692 128.814C82.5997 128.149 82.5986 127.618 82.734 127.219C82.7337 127.086 82.7332 126.82 82.5959 126.355C82.4587 125.89 82.2533 125.425 82.0477 124.894C81.8422 124.363 81.5687 123.898 81.227 123.434C80.8854 122.97 80.6124 122.771 80.2716 122.705C80.0671 122.639 79.7265 122.706 79.3179 122.774C78.9092 122.841 78.5685 122.842 78.3641 122.842C78.296 122.842 78.2278 122.842 78.2277 122.776L78.1594 122.71C77.9549 122.643 77.5466 122.91 77.0024 123.31C76.4583 123.776 75.9145 124.376 75.3029 125.174C74.6914 125.973 74.1482 126.838 73.6732 127.769C73.1302 128.767 72.7916 129.765 72.6575 130.762C72.5902 131.161 72.5229 131.56 72.3876 132.025C72.3203 132.424 72.2532 132.889 72.3221 133.288C72.1876 134.086 72.0528 134.817 71.986 135.415C71.9191 136.013 71.9202 136.545 71.9213 137.077C71.9223 137.542 71.9234 138.073 71.9244 138.539C71.9254 139.004 71.9945 139.469 71.9275 140.001C71.9961 140.2 72.1329 140.465 72.3381 140.864C72.5434 141.262 72.7485 141.594 72.9537 141.992C73.1589 142.324 73.4321 142.656 73.7053 142.987C73.9784 143.253 74.2514 143.451 74.5241 143.517C74.7968 143.583 75.2052 143.383 75.7495 143.049C76.2938 142.65 76.7699 142.25 77.3137 141.651C77.8576 141.118 78.3333 140.519 78.8091 139.986C79.2848 139.387 79.5564 138.921 79.7599 138.522C80.0314 137.99 80.3026 137.391 80.642 136.792C80.7771 136.194 81.2529 135.661 81.7288 135.195ZM84.5096 129.142C84.5093 129.009 84.5775 129.009 84.6456 129.009L84.7819 129.009L84.5772 128.876L84.5096 129.142ZM85.6057 131.931C85.4698 132.131 85.4017 132.131 85.3334 132.064C85.2651 131.998 85.1971 132.065 85.1974 132.198C85.1977 132.33 85.2661 132.463 85.4705 132.463L85.5378 132.064L85.6057 131.931Z" fill="#00BBC4"/>
<path d="M36.9526 129.375C36.9534 129.773 36.8861 130.172 36.8186 130.438C36.7511 130.771 36.6836 131.037 36.6843 131.369C36.6844 131.435 36.6845 131.502 36.6847 131.568C36.6848 131.635 36.685 131.701 36.6851 131.768C36.6855 131.967 36.5501 132.366 36.211 133.098C35.8717 133.763 35.7368 134.428 35.7382 135.092C35.7387 135.292 35.8072 135.491 35.8758 135.69C35.9443 135.889 36.0129 136.088 36.0134 136.354C36.0137 136.487 36.0142 136.687 36.0144 136.819C36.0147 136.952 36.0151 137.152 36.0156 137.351C36.0158 137.484 36.016 137.55 36.0163 137.683C36.0165 137.816 36.0167 137.883 36.017 138.016C36.0174 138.215 35.9497 138.414 35.882 138.614C35.6787 139.146 35.5437 139.744 35.4768 140.343C35.4099 140.941 35.3431 141.539 35.2762 142.137C35.209 142.603 35.2103 143.201 35.1437 143.932C35.077 144.596 34.9422 145.328 34.7391 145.926C34.5361 146.591 34.2647 147.123 33.8569 147.589C33.449 148.056 32.9725 148.256 32.2912 148.257C31.3368 148.06 30.7234 147.928 30.2463 147.863C29.8373 147.797 29.4964 147.665 29.2917 147.533C29.087 147.4 28.9502 147.135 28.8813 146.803C28.8125 146.47 28.6751 145.939 28.4693 145.275C28.4009 145.142 28.4003 144.876 28.3997 144.611C28.3979 143.747 28.328 142.883 28.19 142.086C28.052 141.289 27.9821 140.425 27.9803 139.561C27.9798 139.362 28.0475 139.162 28.1835 139.029C28.3195 138.896 28.3872 138.696 28.3868 138.497C28.3864 138.297 28.3178 138.098 28.1813 137.966C28.1809 137.766 28.1123 137.567 28.1119 137.368C28.1108 136.836 28.3143 136.437 28.6543 136.104C28.9943 135.771 29.1978 135.372 29.1967 134.84C29.1964 134.707 29.1962 134.574 29.1959 134.441C29.1956 134.309 29.1953 134.176 29.195 134.043C29.1946 133.843 29.2623 133.644 29.4663 133.444C29.6703 133.244 29.738 133.045 29.7376 132.845C29.7373 132.713 29.6689 132.58 29.5322 132.381C29.054 131.784 28.8482 131.119 28.8465 130.322C28.8445 129.392 28.9788 128.461 29.2495 127.597C29.5203 126.732 29.6546 125.801 29.6526 124.871C29.6516 124.406 29.7865 123.741 30.0571 122.81C30.3276 121.879 30.5979 120.815 30.9361 119.619C31.2742 118.422 31.5439 117.092 31.8135 115.696C32.0147 114.167 32.148 112.771 32.1449 111.309C32.1441 110.911 32.0071 110.579 31.6659 110.314C31.3247 110.048 31.1878 109.783 31.187 109.384C31.1861 108.985 31.3218 108.719 31.5938 108.453C31.8659 108.253 32.1382 108.12 32.4787 108.052C32.7513 108.052 33.0238 108.051 33.2282 108.051C33.5008 108.05 33.7052 108.05 33.9779 108.116C34.3867 108.115 34.6598 108.38 34.9334 108.911C35.2071 109.442 35.4128 110.04 35.5506 110.771C35.6882 111.435 35.8261 112.165 35.8957 112.896C35.9654 113.627 36.0348 114.225 36.1038 114.624C36.1053 115.355 36.0389 116.152 35.9044 117.016C35.7699 117.814 35.7034 118.612 35.7051 119.409C35.7054 119.542 35.7738 119.675 35.9103 119.807C36.0469 119.94 36.1152 120.006 36.1833 120.006C36.4558 120.006 36.5917 119.806 36.659 119.407C36.7263 119.008 36.7934 118.543 36.8604 118.011C36.9275 117.479 37.1309 117.014 37.3343 116.548C37.6059 116.083 38.0821 115.749 38.7632 115.615C38.6943 115.283 38.6939 115.083 38.6254 114.884C38.5568 114.685 38.5564 114.486 38.5558 114.22C38.5555 114.087 38.6232 113.887 38.7588 113.555C38.8944 113.222 39.03 112.89 39.2337 112.557C39.4374 112.224 39.6409 111.825 39.9128 111.492C40.1846 111.16 40.3883 110.827 40.6604 110.627C40.7964 110.494 40.9323 110.294 41.0001 110.161C41.0678 109.961 41.1357 109.828 41.2034 109.629C41.2711 109.429 41.3388 109.23 41.4067 109.097C41.4744 108.897 41.6784 108.698 42.0188 108.564C42.0868 108.497 42.1546 108.364 42.3583 108.032C42.562 107.699 42.7657 107.366 43.0374 106.967C43.3091 106.568 43.649 106.168 44.1249 105.702C44.6006 105.103 45.0768 104.77 45.6214 104.503C45.8255 104.369 46.0296 104.236 46.1655 104.036C46.3013 103.837 46.4372 103.637 46.5731 103.504C46.709 103.304 46.913 103.104 47.1171 102.971C47.3212 102.838 47.5255 102.771 47.798 102.77C48.0024 102.77 48.2067 102.703 48.411 102.636C48.6152 102.569 48.7512 102.436 48.9553 102.303C49.1595 102.169 49.3636 102.036 49.7041 101.969C49.9765 101.902 50.3852 101.835 50.8621 101.834C51.4072 101.832 51.8163 101.964 52.0893 102.163C52.3622 102.362 52.7032 102.494 53.112 102.493C53.3845 102.493 53.5891 102.559 53.7936 102.625C53.9982 102.691 54.0669 102.956 54.0676 103.289C54.0677 103.355 54.068 103.488 54 103.555C53.9321 103.688 53.9323 103.754 53.8643 103.821C53.8646 103.954 53.9328 104.02 54.0691 104.02C54.2054 104.019 54.2734 103.953 54.2731 103.82C54.2048 103.754 54.2047 103.687 54.1364 103.621C54.0681 103.555 54.068 103.488 53.9997 103.422C54.6823 104.018 55.093 104.881 55.2998 106.011C55.5066 107.14 55.6451 108.203 55.6472 109.2C55.6483 109.731 55.5133 110.33 55.242 110.928C54.9707 111.527 54.7677 112.192 54.701 112.857C54.7014 113.056 54.6336 113.189 54.4976 113.322C54.3616 113.456 54.1575 113.589 54.0215 113.722C53.8174 113.855 53.6815 114.055 53.5457 114.255C53.4098 114.454 53.3422 114.72 53.2747 114.986C53.2072 115.319 53.0034 115.585 52.7313 115.785C52.391 115.985 52.2553 116.251 52.2563 116.716C52.2569 116.982 52.1891 117.182 52.0532 117.315C51.9172 117.448 51.713 117.581 51.5088 117.648C51.3045 117.715 51.1004 117.848 50.9643 117.915C50.8283 118.048 50.7606 118.248 50.761 118.447C50.7614 118.647 50.8979 118.779 51.1708 118.911C51.4436 119.044 51.6481 119.11 51.8525 119.109C52.1932 119.109 52.4656 119.042 52.8061 118.974C53.1467 118.907 53.4191 118.84 53.7598 118.84C54.1004 118.839 54.5094 118.904 55.1227 118.97C55.7361 119.035 56.3497 119.233 56.9632 119.364C57.5769 119.563 58.1224 119.761 58.5999 120.026C59.0774 120.29 59.3505 120.556 59.4193 120.888C59.4879 121.087 59.5566 121.353 59.7615 121.618C59.9665 121.883 60.1713 122.082 60.3763 122.348C60.5811 122.547 60.8541 122.745 61.1269 122.878C61.3997 123.01 61.6043 123.076 61.8087 123.076C61.9449 123.075 62.2173 123.008 62.4896 122.875C62.83 122.741 63.1023 122.608 63.4427 122.474C63.7831 122.341 64.1234 122.207 64.4638 122.073C64.8042 121.94 65.0766 121.873 65.281 121.872C65.6217 121.871 65.8947 122.07 66.1681 122.468C66.3733 122.867 66.5103 123.199 66.511 123.531C66.5117 123.863 66.4442 124.196 66.2404 124.462C66.0366 124.728 65.8326 124.928 65.6283 124.995C65.1518 125.195 64.6754 125.462 64.3354 125.795C63.9955 126.128 63.5189 126.328 63.0421 126.396C62.7022 126.729 62.4983 126.995 62.2265 127.328C62.0228 127.661 61.8872 127.993 61.8882 128.458C61.8903 129.455 61.7559 130.319 61.4849 131.051C61.2139 131.782 61.0793 132.58 61.081 133.378C61.0812 133.51 61.0814 133.577 61.0817 133.71C61.0818 133.776 61.0821 133.909 61.0824 134.042C61.0835 134.574 60.8803 135.172 60.5408 135.705C60.2012 136.237 59.9978 136.703 59.9987 137.101C59.9988 137.168 59.9991 137.301 60.0675 137.433C60.1359 137.566 60.1362 137.699 60.1365 137.832C60.1368 137.965 60.0692 138.231 59.9339 138.696C59.7985 139.095 59.6632 139.561 59.4598 140.026C59.2563 140.492 59.0529 140.958 58.8494 141.357C58.6458 141.756 58.4421 142.089 58.2381 142.288C58.17 142.288 58.1021 142.422 57.9663 142.621C57.8304 142.821 57.6947 143.087 57.5591 143.419C57.4236 143.752 57.2879 144.018 57.1523 144.351C57.0167 144.683 56.9493 145.016 56.8817 145.282C56.8824 145.614 56.6787 145.947 56.2706 146.28C55.8625 146.613 55.5908 147.012 55.3872 147.411C55.1163 148.143 54.6407 148.808 53.9606 149.408C53.2805 150.007 52.7369 150.673 52.2615 151.405C51.9899 151.871 51.6498 152.137 51.3093 152.205C50.9006 152.272 50.6285 152.472 50.3566 152.805C50.2886 152.871 50.0165 153.071 49.5403 153.404C49.0642 153.804 48.3831 153.938 47.4973 153.94C46.9523 153.941 46.5432 153.809 46.2019 153.544C45.8607 153.279 45.4515 153.081 44.9061 152.949C44.2248 152.95 43.6106 152.487 42.9954 151.557C42.3802 150.628 42.105 149.366 42.1013 147.639C42.1001 147.041 42.1668 146.376 42.3697 145.644C42.5725 144.913 42.7754 144.182 43.1144 143.383C43.4534 142.585 43.7244 141.854 44.1316 141.122C44.4708 140.39 44.8782 139.725 45.2176 139.126C45.9648 138.061 46.6441 137.063 47.3232 135.998C48.0024 135 48.6816 134.002 49.361 133.07C50.0404 132.138 50.8561 131.206 51.6037 130.341C52.4195 129.475 53.3036 128.676 54.3921 127.876C54.7323 127.676 55.0726 127.476 55.4125 127.143C55.8208 126.876 56.1609 126.61 56.5009 126.277C56.841 126.01 57.113 125.744 57.385 125.477C57.5888 125.211 57.7245 124.945 57.7241 124.746C57.5851 123.483 57.1064 122.62 56.2879 122.223C55.4695 121.826 54.5831 121.562 53.629 121.432C52.6069 121.434 51.6535 121.635 50.8366 121.969C50.0196 122.303 49.271 122.703 48.5908 123.236C47.9105 123.769 47.2303 124.303 46.6184 124.902C46.0064 125.501 45.3945 126.101 44.7825 126.7C44.4425 127.033 44.0346 127.433 43.6269 127.965C43.2192 128.498 42.7434 129.03 42.2675 129.563C41.7917 130.095 41.3158 130.562 40.9077 130.895C40.4997 131.294 40.0912 131.428 39.7505 131.429C39.3417 131.43 39.0009 131.364 38.796 131.165C38.5912 130.966 38.3864 130.767 38.1816 130.568C37.9767 130.369 37.8399 130.104 37.7032 129.905C37.43 129.573 37.2253 129.441 36.9526 129.375C37.02 129.042 37.0875 128.71 37.1549 128.377C37.2223 128.045 37.2898 127.713 37.3572 127.38C37.7652 126.981 38.2413 126.581 38.7175 126.248C39.1937 125.914 39.6699 125.515 40.146 125.115C40.5539 124.715 40.9622 124.449 41.4386 124.182C41.8468 123.915 42.3232 123.648 42.7313 123.315C43.1394 122.982 43.6836 122.582 44.2277 122.116C44.7718 121.65 45.3836 120.984 45.9952 120.185C46.267 119.852 46.5388 119.519 46.947 119.186C47.2869 118.853 47.6269 118.52 47.967 118.254C48.307 117.921 48.5788 117.588 48.8508 117.321C49.1226 116.989 49.2582 116.656 49.3256 116.324C49.4612 115.991 49.6652 115.791 50.0055 115.591C50.3457 115.391 50.5495 115.125 50.5487 114.726C50.5479 114.327 50.479 113.995 50.41 113.597C50.3412 113.265 50.2724 112.933 50.2035 112.6C50.5424 111.736 50.8131 110.871 51.152 110.007C51.4908 109.142 51.6251 108.211 51.623 107.215C51.6222 106.816 51.5532 106.417 51.4158 105.886C51.2784 105.355 51.0053 105.089 50.4602 105.091C50.0514 105.091 49.4385 105.226 48.7577 105.493C48.0088 105.76 47.4641 105.961 47.0557 106.161C46.5106 106.162 46.1702 106.296 45.9665 106.628C45.7628 106.961 45.6271 107.227 45.5595 107.493L45.6275 107.427C45.1512 107.693 44.6749 108.027 44.1989 108.493C43.7911 108.959 43.3146 109.159 42.9058 109.16C42.4288 109.161 42.2247 109.295 42.2251 109.494C42.2254 109.627 42.2257 109.76 42.2941 109.892C42.3625 110.025 42.3628 110.158 42.3631 110.291C42.3638 110.623 42.3644 110.889 42.2969 111.222C42.2295 111.554 42.0936 111.754 41.7534 111.954C41.6173 112.02 41.5495 112.22 41.5504 112.619C41.5511 112.951 41.4837 113.283 41.3481 113.616L41.4162 113.616C41.2121 113.749 41.008 113.882 41.0085 114.148C40.9408 114.348 40.8733 114.614 40.8738 114.879C40.8062 115.145 40.7385 115.345 40.671 115.611C40.6034 115.877 40.3994 116.077 40.1271 116.21C39.923 116.343 39.787 116.477 39.7193 116.676C39.6516 116.876 39.5157 117.075 39.4479 117.208C39.3802 117.408 39.2443 117.608 39.1083 117.741C38.9725 117.94 38.7682 118.007 38.5641 118.141C38.3611 118.806 38.2941 119.337 38.2952 119.869C38.2959 120.201 38.3648 120.533 38.5017 120.865C38.6388 121.264 38.7075 121.529 38.708 121.729C38.7084 121.928 38.6408 122.194 38.5054 122.593C38.3699 122.992 38.166 123.192 37.9618 123.325C37.9617 123.259 37.9616 123.192 37.9614 123.126C37.9613 123.059 37.893 122.993 37.7566 122.927C37.6885 122.927 37.6205 122.994 37.6207 123.127C37.689 123.193 37.8254 123.259 37.9618 123.325C37.9621 123.458 37.9624 123.591 37.9627 123.724C37.963 123.857 37.9631 123.923 37.9634 124.056C37.9637 124.189 37.9639 124.322 38.0324 124.455C38.1008 124.588 38.1011 124.72 38.1013 124.853C38.1023 125.319 37.967 125.784 37.6273 126.25C37.2877 126.716 37.1526 127.314 37.1542 128.045C37.1546 128.245 37.1552 128.51 37.2239 128.776C36.9516 128.909 36.9522 129.175 36.9526 129.375ZM41.1435 113.55C41.2117 113.55 41.2115 113.483 41.2114 113.417L41.2797 113.483C41.2115 113.483 41.2115 113.483 41.1435 113.55ZM45.4233 107.494C45.5595 107.493 45.6278 107.56 45.628 107.626C45.6281 107.692 45.6281 107.692 45.56 107.693C45.4918 107.693 45.4917 107.626 45.4233 107.494ZM55.6945 131.595C55.2868 132.127 54.8106 132.46 54.1296 132.661C54.0616 132.728 53.9935 132.728 53.9935 132.728C53.9935 132.728 53.9937 132.794 53.9255 132.795C53.2459 133.593 52.6345 134.459 51.9548 135.257C51.2751 136.056 50.5955 136.855 49.9841 137.72C49.7804 138.053 49.3725 138.519 48.8973 139.318C48.4219 140.05 47.8786 140.915 47.4038 141.912C46.9288 142.844 46.5222 143.908 46.1157 144.972C45.7773 146.036 45.5751 147.1 45.5772 148.096C45.578 148.495 45.647 148.894 45.716 149.292C45.785 149.691 46.0579 149.89 46.4668 149.889C46.8074 149.888 47.0798 149.821 47.4204 149.754C47.7609 149.687 48.1013 149.553 48.3737 149.486C48.3056 149.486 48.5097 149.353 48.8498 149.086C49.1899 148.82 49.5982 148.553 50.0061 148.154C50.4142 147.82 50.8223 147.487 51.2303 147.088C51.5703 146.755 51.7741 146.489 51.7738 146.356C51.7736 146.223 51.7734 146.156 51.705 146.023C51.6366 145.891 51.6365 145.824 51.6363 145.758C51.6356 145.426 51.7032 145.16 51.9072 144.96C52.1111 144.76 52.3153 144.627 52.5194 144.493C52.7235 144.36 52.9276 144.227 53.1318 144.093C53.3359 143.96 53.4035 143.694 53.4029 143.428C53.4028 143.362 53.4026 143.295 53.4025 143.229C53.4023 143.162 53.4022 143.096 53.4021 143.029C53.4015 142.764 53.4692 142.564 53.6051 142.365C53.7409 142.165 53.945 142.032 54.0809 141.832C54.285 141.699 54.421 141.565 54.557 141.432C54.693 141.299 54.7608 141.166 54.7604 140.967C54.7598 140.701 54.6232 140.502 54.4186 140.436C54.2139 140.303 54.0772 140.104 54.0767 139.838C54.3481 139.306 54.6194 138.707 54.8906 138.109C55.1619 137.51 55.5695 136.911 56.0454 136.445C56.1134 136.378 56.1813 136.245 56.385 135.913C56.5887 135.58 56.7242 135.247 56.8597 134.848C56.9951 134.449 57.1305 134.05 57.2661 133.718C57.4017 133.385 57.4692 133.119 57.4688 132.92C57.4685 132.787 57.3998 132.521 57.3311 132.256C57.2624 131.99 57.1937 131.724 57.1249 131.392C57.0562 131.127 56.9192 130.795 56.8503 130.396C56.5102 130.663 56.1022 131.062 55.6945 131.595ZM55.98 137.708C56.0481 137.708 56.1162 137.707 56.1842 137.641C56.1161 137.641 56.1161 137.641 56.1161 137.641C56.1161 137.641 56.1161 137.641 56.048 137.641C55.9798 137.641 55.9117 137.641 55.8437 137.708C55.9117 137.641 55.9118 137.708 55.98 137.708C55.9118 137.708 55.98 137.708 55.98 137.708Z" fill="#00BBC4"/>
<path d="M118.438 128.074C118.778 127.542 119.049 127.01 119.253 126.477C119.524 125.945 119.727 125.413 119.931 124.815C120.066 124.349 120.337 123.883 120.745 123.484C121.153 123.018 121.561 122.618 121.969 122.285C122.377 121.952 122.785 121.619 123.126 121.419C123.466 121.219 123.602 121.152 123.602 121.152C123.942 120.753 124.282 120.553 124.759 120.551C125.236 120.55 125.645 120.483 126.053 120.416C126.735 120.414 127.348 120.613 128.03 120.943C128.713 121.341 129.394 121.539 130.212 121.537C130.417 121.669 130.758 121.868 131.099 122.067C131.44 122.265 131.849 122.464 132.191 122.795C132.532 123.127 132.873 123.458 133.079 123.857C133.352 124.255 133.489 124.786 133.491 125.318C133.492 125.849 133.357 126.448 133.085 127.046C132.814 127.645 132.407 128.31 131.931 128.91C131.455 129.509 130.912 130.108 130.3 130.707C129.688 131.307 129.075 131.773 128.463 132.173C128.123 132.373 127.783 132.64 127.443 132.973C127.103 133.306 126.831 133.572 126.491 133.839C126.15 134.105 125.878 134.372 125.47 134.572C125.13 134.772 124.721 134.906 124.176 134.973C123.155 135.108 122.542 135.508 122.271 136.173C122 136.838 121.867 138.168 121.87 140.029C121.873 141.025 122.011 141.889 122.217 142.619C122.423 143.416 122.968 143.748 123.786 143.746C123.922 143.746 124.331 143.612 124.943 143.278C125.556 142.945 126.236 142.545 126.985 142.078C127.733 141.611 128.414 141.078 129.094 140.545C129.774 140.012 130.318 139.546 130.658 139.08C130.998 138.946 131.339 138.812 131.611 138.546C131.883 138.28 132.155 138.08 132.427 137.813C132.699 137.547 132.971 137.347 133.243 137.214C133.515 137.014 133.788 136.947 134.128 136.946C134.401 136.945 134.605 137.011 134.878 137.21C135.083 137.409 135.22 137.608 135.22 137.807C135.221 137.94 135.085 138.206 134.881 138.539C134.677 138.872 134.338 139.271 133.998 139.671C133.658 140.07 133.318 140.403 132.91 140.67C132.57 141.003 132.229 141.136 132.025 141.203C131.617 141.337 131.344 141.537 131.141 141.803C130.937 142.136 130.665 142.336 130.256 142.403C130.12 142.47 129.984 142.736 129.713 143.135C129.441 143.535 129.169 143.867 128.761 144.134C128.557 144.267 128.353 144.534 128.149 144.8C127.945 145.133 127.673 145.399 127.401 145.732C127.13 146.065 126.789 146.265 126.381 146.531C125.973 146.732 125.496 146.866 124.883 146.867C124.61 146.867 124.338 146.868 123.997 146.802C123.656 146.737 123.384 146.737 123.043 146.738C122.907 146.738 122.839 146.738 122.702 146.739C122.566 146.739 122.498 146.739 122.362 146.739C122.021 146.74 121.68 146.674 121.271 146.542C120.862 146.41 120.521 146.212 120.18 145.946C119.838 145.681 119.565 145.416 119.292 145.151C119.087 144.885 118.95 144.62 118.95 144.354C118.95 144.221 118.881 144.088 118.813 144.022C118.745 143.956 118.608 143.89 118.54 143.823C118.472 143.757 118.335 143.691 118.267 143.625C118.199 143.558 118.13 143.426 118.13 143.16C118.129 142.761 117.992 142.363 117.65 141.965C117.309 141.567 117.171 141.102 117.17 140.57C117.17 140.437 117.306 140.105 117.509 139.44C117.712 138.775 117.847 138.243 117.846 137.711C117.845 137.445 117.708 137.047 117.434 136.582C117.161 136.118 117.024 135.719 117.023 135.52C117.022 135.121 117.022 134.722 117.089 134.257C117.156 133.858 117.155 133.46 117.154 132.994C117.154 132.861 117.154 132.795 117.154 132.662C117.153 132.529 117.153 132.463 117.153 132.33C117.356 131.798 117.628 131.266 117.899 130.667C118.17 130.068 118.305 129.536 118.304 129.005C118.304 128.938 118.304 128.872 118.304 128.805C118.304 128.739 118.304 128.739 118.303 128.606C118.303 128.407 118.371 128.274 118.507 128.14C118.371 128.406 118.439 128.273 118.438 128.074ZM118.575 128.14C118.507 128.14 118.439 128.141 118.438 128.074L118.575 128.14ZM122.671 131.919C123.896 131.186 124.848 130.586 125.597 130.053C126.345 129.519 126.957 128.986 127.569 128.454C128.181 127.921 128.453 127.388 128.452 126.99C128.452 126.923 128.452 126.79 128.383 126.591C128.314 126.325 128.314 126.06 128.245 125.794C128.176 125.528 128.108 125.263 127.971 125.064C127.834 124.865 127.698 124.732 127.562 124.732C127.289 124.733 127.017 124.866 126.677 125.133C126.336 125.399 125.997 125.732 125.657 126.132C125.317 126.531 124.977 126.931 124.705 127.263C124.433 127.663 124.161 127.929 123.958 128.129C123.618 128.595 123.414 129.06 123.211 129.393C123.007 129.726 122.803 130.125 122.668 130.524C122.464 130.923 122.397 131.189 122.397 131.388C122.466 131.521 122.534 131.654 122.671 131.919Z" fill="#00BBC4"/>
<path d="M141.336 130.086C141.472 130.085 141.541 130.085 141.677 130.085C141.813 130.085 141.881 130.085 141.949 130.084C142.222 130.084 142.494 129.884 142.766 129.551C143.038 129.152 143.309 128.752 143.649 128.22C143.988 127.688 144.328 127.222 144.736 126.756C145.144 126.29 145.552 125.89 146.028 125.69C146.3 125.357 146.708 124.891 147.252 124.358C147.796 123.825 148.408 123.293 149.156 122.693C149.836 122.16 150.653 121.693 151.606 121.292C152.491 120.892 153.445 120.757 154.467 120.755C154.875 120.754 155.216 120.819 155.557 120.885C155.898 120.951 156.239 121.083 156.58 121.215C156.921 121.281 157.057 121.48 157.126 121.679C157.194 121.945 157.399 122.077 157.672 122.077C157.944 122.143 158.217 122.342 158.422 122.607C158.627 122.872 158.832 123.138 159.037 123.47C159.242 123.801 159.379 124.133 159.448 124.399C159.517 124.731 159.586 124.93 159.586 125.13C159.588 125.927 159.453 126.858 159.251 127.921C159.049 128.985 158.71 129.983 158.303 130.847C157.964 131.579 157.557 132.245 157.149 132.843C156.742 133.442 156.335 134.174 155.995 134.906C155.792 135.438 155.521 135.97 155.045 136.37C154.637 136.77 154.161 137.236 153.753 137.702C153.549 137.902 153.413 138.101 153.209 138.434C153.074 138.7 152.87 138.966 152.666 139.232C152.462 139.499 152.258 139.699 152.054 139.965C151.85 140.165 151.578 140.298 151.238 140.365C150.897 140.366 150.761 140.433 150.693 140.566C150.625 140.699 150.557 140.898 150.558 141.098C150.558 141.363 150.218 141.63 149.606 141.964C148.993 142.297 148.312 142.564 147.495 142.898C146.678 143.166 145.861 143.433 145.112 143.634C144.295 143.835 143.75 143.903 143.341 143.904C143.069 143.904 142.796 143.839 142.591 143.706C142.319 143.574 142.114 143.508 141.841 143.508C141.569 143.509 141.365 143.709 141.161 144.108C140.958 144.507 140.823 144.972 140.688 145.571C140.552 146.103 140.486 146.701 140.419 147.233C140.351 147.764 140.352 148.23 140.353 148.562C140.354 148.894 140.354 149.16 140.423 149.492C140.492 149.824 140.493 150.09 140.493 150.422C140.494 150.755 140.495 151.02 140.495 151.286C140.496 151.552 140.496 151.818 140.497 152.15C140.498 152.482 140.566 152.748 140.771 152.947C140.976 153.146 141.181 153.345 141.25 153.677C141.318 153.943 141.387 154.275 141.456 154.607C141.525 154.939 141.526 155.271 141.526 155.67C141.527 156.002 141.528 156.335 141.597 156.6C141.734 157.065 141.871 157.53 142.008 157.862C142.145 158.194 142.214 158.593 142.215 158.991C142.215 159.191 142.216 159.456 142.216 159.722C142.217 159.988 142.149 160.254 142.014 160.454C141.878 160.653 141.674 160.853 141.333 160.987C140.993 161.12 140.584 161.188 139.971 161.189C139.63 161.19 139.289 161.057 139.016 160.726C138.675 160.394 138.47 159.996 138.196 159.465C137.99 158.934 137.785 158.336 137.647 157.605C137.509 156.941 137.44 156.21 137.438 155.413C137.437 155.081 137.505 154.815 137.64 154.482C137.776 154.149 137.843 153.884 137.843 153.618C137.569 153.153 137.364 152.688 137.227 152.223C137.09 151.825 136.953 151.493 136.815 151.095C136.678 150.696 136.61 150.431 136.609 150.231C136.609 150.032 136.677 149.832 136.813 149.699C136.948 149.499 137.016 149.3 137.016 149.167C137.015 148.968 136.947 148.835 136.878 148.636C136.81 148.503 136.741 148.304 136.741 148.104C136.741 147.971 136.74 147.839 136.808 147.705C136.876 147.572 136.876 147.44 136.876 147.307C136.875 147.107 136.875 146.974 136.806 146.842C136.738 146.709 136.738 146.576 136.737 146.377C136.737 146.244 136.805 146.111 136.873 145.845C136.872 145.512 136.803 145.247 136.666 144.915C136.529 144.583 136.46 144.317 136.46 143.985C136.459 143.453 136.594 142.855 136.797 142.19C137 141.525 137.135 141.059 137.134 140.727C137.134 140.661 137.134 140.594 137.066 140.528C136.997 140.462 136.997 140.395 136.997 140.329C136.997 140.196 137.065 140.063 137.133 139.93C137.201 139.863 137.268 139.73 137.268 139.531C137.268 139.331 137.131 139.066 136.926 138.867C136.721 138.668 136.584 138.469 136.584 138.336C136.584 138.203 136.72 138.07 136.924 137.87C137.128 137.67 137.264 137.471 137.263 137.338C137.263 137.205 137.195 137.006 137.058 136.74C136.921 136.475 136.852 136.209 136.852 135.943C136.851 135.478 136.918 135.146 137.054 134.879C137.189 134.613 137.325 134.414 137.461 134.28C137.597 134.147 137.733 134.014 137.869 133.881C138.005 133.814 138.073 133.681 138.073 133.482C138.072 133.282 138.004 133.15 137.867 133.017C137.731 132.884 137.594 132.685 137.457 132.287C137.593 131.954 137.796 131.555 137.932 131.156C138.135 130.757 138.202 130.292 138.202 129.959C138.201 129.561 138.064 129.229 137.79 128.831C137.517 128.432 137.38 127.968 137.379 127.436C137.378 127.17 137.514 126.838 137.785 126.305C138.057 125.84 138.192 125.308 138.191 124.776C138.19 124.377 138.121 123.912 138.052 123.514C137.983 123.115 137.914 122.65 137.913 122.251C137.912 121.853 138.047 121.454 138.319 121.054C138.591 120.655 138.726 120.256 138.725 119.791C138.725 119.525 138.724 119.259 138.656 119.06C138.587 118.794 138.586 118.595 138.586 118.329C138.585 117.997 138.585 117.665 138.652 117.332C138.719 116.933 138.787 116.601 138.854 116.269C138.99 115.936 139.125 115.67 139.329 115.404C139.533 115.137 139.737 115.004 140.078 115.003C140.35 115.003 140.691 115.069 141.168 115.2C141.578 115.332 142.055 115.464 142.396 115.729C142.805 115.994 143.147 116.26 143.42 116.658C143.693 117.056 143.831 117.521 143.832 118.119C143.833 118.518 143.765 118.916 143.562 119.382C143.359 119.848 143.155 120.38 142.952 120.845C142.748 121.311 142.545 121.843 142.342 122.309C142.138 122.774 142.071 123.239 142.072 123.572C142.074 124.436 141.939 125.167 141.736 125.832C141.533 126.497 141.33 127.162 141.264 127.959C141.264 128.159 141.332 128.291 141.469 128.491C141.606 128.623 141.674 128.822 141.674 128.955C141.675 129.088 141.607 129.221 141.471 129.354C141.335 129.488 141.267 129.621 141.267 129.82C141.131 129.687 141.199 129.82 141.336 130.086C141.064 130.219 140.792 130.419 140.656 130.552C140.52 130.752 140.384 130.952 140.248 131.151C140.181 131.351 140.045 131.617 140.045 131.883C139.978 132.149 139.842 132.481 139.639 132.88L139.775 133.013C139.98 133.013 140.116 132.946 140.252 132.813C140.388 132.679 140.455 132.48 140.523 132.28C140.591 132.081 140.659 131.881 140.726 131.682C140.794 131.482 140.794 131.349 140.793 131.217C140.793 130.884 140.724 130.619 140.587 130.353C140.723 130.286 140.859 130.22 140.996 130.219C141.064 130.153 141.2 130.152 141.336 130.086ZM138.823 133.746C138.687 133.813 138.619 133.946 138.619 134.212C138.62 134.344 138.62 134.411 138.688 134.411C138.756 134.477 138.756 134.477 138.757 134.61C138.825 134.543 138.824 134.477 138.892 134.41C138.96 134.344 138.96 134.344 139.028 134.211C138.96 134.144 138.96 133.945 138.823 133.746ZM138.854 148.366C138.921 148.166 138.989 148.033 138.989 147.967L138.853 147.834C138.785 147.967 138.717 148.1 138.717 148.233L138.854 148.366ZM139.609 151.222L139.814 151.288L139.677 151.089L139.609 151.222ZM147.123 127.947C147.124 128.346 147.057 128.678 146.921 128.878C146.785 129.077 146.649 129.277 146.513 129.41C146.377 129.61 146.241 129.743 146.105 129.943C145.969 130.142 145.834 130.342 145.766 130.674C145.631 131.14 145.359 131.606 145.088 131.939C144.748 132.338 144.476 132.737 144.136 133.137C144 133.27 143.865 133.602 143.661 134.068C143.458 134.534 143.254 135.066 143.051 135.664C142.848 136.263 142.645 136.861 142.51 137.46C142.375 138.058 142.308 138.59 142.309 138.988C142.309 139.254 142.31 139.587 142.379 139.985C142.448 140.384 142.653 140.583 142.925 140.582C142.994 140.582 143.402 140.515 144.083 140.38C144.764 140.246 145.582 140.045 146.467 139.711C147.352 139.377 148.237 138.976 149.053 138.443C149.87 137.909 150.481 137.177 150.82 136.312C151.16 135.913 151.432 135.58 151.703 135.181C151.907 134.848 152.179 134.582 152.451 134.249C152.723 133.916 152.927 133.716 153.131 133.516C153.267 133.383 153.47 132.984 153.741 132.253C154.012 131.521 154.215 130.657 154.486 129.726C154.756 128.795 154.959 127.864 155.093 126.867C155.295 125.936 155.362 125.139 155.36 124.607C155.359 124.142 155.223 123.876 155.018 123.744C154.813 123.611 154.472 123.546 154.132 123.546C153.45 123.548 152.838 123.748 152.225 124.148C151.613 124.548 151.001 125.015 150.389 125.548C149.776 126.081 149.232 126.547 148.688 127.013C148.213 127.612 147.668 127.879 147.123 127.947Z" fill="#00BBC4"/>
<path d="M189.064 145.27C188.726 146.4 188.318 147.198 187.774 147.665C187.23 148.197 186.482 148.531 185.528 148.799C185.051 148.468 184.505 148.07 183.891 147.673C183.277 147.275 183.003 146.744 183.002 146.08C183.001 145.615 182.864 145.283 182.591 145.15C182.318 145.018 182.181 144.753 182.18 144.287C182.179 143.955 182.179 143.689 182.178 143.357C182.177 143.025 182.177 142.759 182.176 142.427C182.107 141.962 182.038 141.364 181.9 140.766C181.831 140.168 181.761 139.636 181.761 139.171C181.76 138.972 181.76 138.706 181.827 138.44C181.895 138.174 181.894 137.975 181.894 137.709C181.825 137.377 181.824 137.111 181.756 136.845C181.687 136.58 181.618 136.314 181.618 136.048C181.617 135.849 181.685 135.583 181.752 135.317C181.82 135.051 181.888 134.852 181.887 134.652C181.887 134.453 181.886 134.253 181.818 134.054C181.749 133.855 181.749 133.656 181.748 133.456C181.747 132.858 181.814 132.194 181.949 131.462C182.083 130.731 182.15 130.066 182.149 129.402C182.148 129.202 182.148 129.003 182.148 128.87C182.147 128.671 182.011 128.538 181.806 128.472C181.738 128.472 181.67 128.472 181.602 128.473C181.533 128.473 181.465 128.473 181.397 128.473C181.397 128.539 181.262 128.806 180.99 129.138C180.718 129.538 180.378 129.937 180.039 130.403C179.699 130.869 179.359 131.335 179.02 131.801C178.68 132.267 178.476 132.666 178.341 132.932C178.273 133.131 178.137 133.331 178.07 133.663C177.934 133.996 177.798 134.262 177.663 134.528C177.527 134.794 177.391 135.127 177.188 135.592C176.847 135.726 176.643 135.859 176.508 136.125C176.372 136.392 176.236 136.591 176.1 136.857C175.965 137.123 175.897 137.389 175.829 137.589C175.762 137.855 175.626 137.988 175.558 138.121C175.082 138.521 174.674 139.053 174.267 139.852C173.86 140.65 173.385 141.448 172.841 142.247C172.298 143.046 171.686 143.711 171.006 144.311C170.326 144.91 169.441 145.245 168.487 145.247C167.533 145.249 166.647 144.918 165.691 144.322C164.736 143.66 164.257 142.73 164.118 141.401C164.049 140.737 163.911 140.139 163.637 139.542C163.432 138.944 163.294 138.346 163.293 137.682C163.291 136.685 163.356 135.622 163.422 134.558C163.488 133.495 163.691 132.497 163.825 131.567C163.825 131.5 163.892 131.234 163.959 130.769C164.026 130.237 164.093 129.639 164.16 128.842C164.226 128.044 164.293 127.18 164.359 126.249C164.425 125.252 164.423 124.256 164.421 123.259C164.42 123.06 164.42 122.794 164.351 122.528C164.282 122.262 164.282 122.063 164.281 121.797C164.281 121.598 164.349 121.465 164.553 121.265C164.757 121.132 164.893 121.065 165.097 121.064C165.779 121.13 166.46 121.327 167.143 121.658C167.825 121.989 168.098 122.454 168.1 123.118C167.9 125.378 167.7 127.571 167.5 129.632C167.3 131.759 167.169 133.952 167.173 136.145C167.174 136.544 167.175 137.009 167.176 137.541C167.177 138.072 167.246 138.537 167.316 139.069C167.385 139.534 167.454 139.999 167.591 140.331C167.728 140.663 167.933 140.862 168.137 140.861C168.478 140.861 168.954 140.461 169.565 139.729C170.177 138.996 170.788 138.065 171.536 137C172.215 135.935 172.962 134.87 173.641 133.739C174.32 132.608 174.931 131.676 175.475 130.944C175.815 130.545 176.086 130.212 176.427 130.012C176.767 129.812 176.971 129.479 177.106 128.947C177.241 128.415 177.581 127.949 178.057 127.483C178.532 127.017 178.94 126.617 179.28 126.218C179.484 126.018 179.824 125.619 180.232 125.086C180.639 124.554 181.047 124.021 181.523 123.489C181.999 122.956 182.475 122.49 182.883 122.09C183.359 121.691 183.699 121.491 184.04 121.49C184.312 121.489 184.585 121.489 184.925 121.421C185.266 121.354 185.607 121.354 185.947 121.353C187.242 121.35 188.197 121.747 188.743 122.477C189.29 123.273 189.564 124.203 189.567 125.266C189.569 126.329 189.435 127.393 189.165 128.457C188.894 129.52 188.76 130.451 188.762 131.315C188.762 131.514 188.763 131.714 188.763 131.913C188.764 132.112 188.764 132.312 188.765 132.578C188.766 133.375 188.7 134.106 188.565 134.904C188.43 135.635 188.364 136.433 188.365 137.164C188.435 138.028 188.573 138.891 188.644 139.821C188.782 140.751 188.852 141.549 188.853 142.346C188.853 142.413 188.854 142.479 188.854 142.546C188.854 142.612 188.854 142.678 188.854 142.745C188.855 143.144 188.924 143.476 189.061 143.808C188.722 144.606 188.927 144.938 189.064 145.27Z" fill="#00BBC4"/>
<path d="M216.793 144.945C216.862 145.145 216.93 145.344 216.931 145.41C216.931 145.477 216.863 145.543 216.795 145.809C216.727 146.009 216.592 146.208 216.524 146.474C216.388 146.741 216.252 146.94 216.117 147.14C215.981 147.339 215.776 147.406 215.64 147.407C215.436 147.407 215.299 147.274 215.163 147.075C215.026 146.876 214.957 146.677 214.821 146.478C214.957 146.478 215.025 146.478 215.025 146.478C215.093 146.477 215.093 146.477 215.229 146.477C214.821 146.478 214.548 146.412 214.479 146.213C214.411 146.014 214.206 145.948 213.866 145.948C213.457 146.282 212.981 146.615 212.505 147.081C212.029 147.547 211.485 147.814 210.94 147.815C210.395 147.816 209.985 147.551 209.712 147.087C209.438 146.622 209.233 146.091 209.163 145.427C209.025 144.762 208.956 144.098 208.954 143.433C208.953 142.702 208.884 142.171 208.746 141.706C208.882 141.307 209.017 140.842 209.152 140.31C209.356 139.778 209.423 139.445 209.422 139.179C209.422 139.047 209.422 138.847 209.421 138.714C209.421 138.581 209.421 138.382 209.42 138.183C209.42 137.85 209.419 137.585 209.418 137.252C209.418 136.92 209.417 136.588 209.416 136.322C209.416 136.123 209.416 135.99 209.415 135.79C209.415 135.657 209.415 135.458 209.346 135.259C209.414 135.192 209.414 135.059 209.414 134.993C209.413 134.661 209.276 134.395 209.071 134.196C208.866 133.931 208.73 133.732 208.729 133.466C208.728 133.2 208.796 132.868 208.863 132.469C208.93 132.07 208.998 131.671 208.997 131.339C208.997 131.206 208.996 130.94 208.927 130.608C208.859 130.276 208.79 129.944 208.721 129.545C208.652 129.147 208.515 128.815 208.446 128.549C208.309 128.217 208.241 128.084 208.104 128.018C208.104 128.084 207.833 128.417 207.357 128.95C206.881 129.483 206.337 130.082 205.794 130.814C205.25 131.48 204.638 132.145 204.162 132.745C203.619 133.344 203.347 133.743 203.347 133.942C203.212 134.341 202.94 134.608 202.531 134.675C202.123 134.742 201.714 134.81 201.237 134.811C200.488 134.812 199.806 134.814 199.329 134.815C198.784 134.816 198.375 134.75 197.966 134.618C197.557 134.486 197.216 134.288 196.943 134.089C196.67 133.824 196.397 133.492 196.123 133.027C195.576 132.165 195.165 131.169 194.89 130.106C194.616 129.043 194.477 128.047 194.475 127.183C194.474 126.518 194.541 125.92 194.744 125.322C194.947 124.723 195.014 124.125 195.013 123.527C195.012 123.194 195.012 122.995 194.943 122.862C195.011 122.53 195.078 122.131 195.213 121.732C195.281 121.333 195.416 120.934 195.552 120.535C195.687 120.136 195.823 119.87 196.027 119.604C196.23 119.338 196.435 119.204 196.775 119.203C197.593 119.202 198.138 119.4 198.548 119.864C198.89 120.262 199.095 120.86 199.097 121.458C199.098 121.923 199.099 122.388 199.099 122.787C199.1 123.252 199.101 123.717 199.102 124.116C199.103 124.316 199.104 124.781 199.105 125.445C199.107 126.176 199.176 126.907 199.314 127.638C199.452 128.435 199.59 129.099 199.863 129.697C200.069 130.294 200.411 130.626 200.819 130.625C200.887 130.625 200.956 130.625 200.956 130.625L201.024 130.625C202.044 129.825 203.132 128.826 204.22 127.694C205.308 126.495 206.259 125.43 207.075 124.365C207.21 124.166 207.414 123.766 207.617 123.234C207.821 122.702 208.024 122.104 208.295 121.572C208.567 121.039 208.906 120.507 209.314 120.107C209.722 119.708 210.198 119.441 210.812 119.44C211.084 119.506 211.357 119.638 211.562 119.704C211.766 119.836 212.039 119.902 212.312 119.902C212.448 119.902 212.584 119.901 212.72 119.834C212.856 119.768 212.993 119.767 213.129 119.767C213.878 119.766 214.424 119.897 214.901 120.162C215.311 120.427 215.72 120.759 215.926 121.223C216.199 121.621 216.336 122.153 216.406 122.684C216.475 123.216 216.544 123.814 216.545 124.412C216.547 124.943 216.548 125.475 216.481 125.94C216.414 126.472 216.415 126.937 216.416 127.402C216.416 127.602 216.416 127.735 216.417 127.934C216.417 128.067 216.417 128.266 216.486 128.399C216.486 128.665 216.419 128.864 216.283 129.064C216.147 129.264 216.079 129.463 216.079 129.596C216.08 129.729 216.148 129.795 216.284 129.861C216.421 129.928 216.489 130.06 216.49 130.193C216.49 130.526 216.423 130.792 216.219 131.124C216.015 131.457 215.948 131.789 215.949 132.188C215.95 132.919 216.02 133.716 216.09 134.514C216.16 135.311 216.229 136.042 216.231 136.839C216.163 137.039 216.164 137.305 216.165 137.637C216.166 138.168 216.235 138.7 216.372 139.231C216.51 139.763 216.647 140.294 216.853 140.825C216.853 140.892 216.853 140.892 216.853 140.958C216.853 141.025 216.853 141.025 216.853 141.091C216.854 141.423 216.786 141.689 216.583 142.088C216.379 142.421 216.312 142.753 216.312 143.086C216.177 143.551 216.383 144.215 216.793 144.945ZM209.704 143.432C209.772 143.365 209.772 143.299 209.84 143.299C209.908 143.299 209.908 143.232 209.908 143.232C209.908 143.033 209.839 142.634 209.701 142.103C209.634 142.369 209.566 142.568 209.498 142.701C209.43 142.834 209.43 142.967 209.431 143.1C209.431 143.167 209.499 143.299 209.704 143.432ZM211.798 134.722C211.798 134.855 211.866 134.921 212.071 134.921C212.207 134.921 212.343 134.854 212.411 134.721C212.479 134.588 212.547 134.455 212.615 134.322C212.546 134.255 212.546 134.122 212.478 133.99C212.409 133.857 212.341 133.791 212.273 133.791C212.068 133.791 211.932 133.858 211.864 133.991C211.797 134.124 211.729 134.257 211.729 134.39C211.729 134.523 211.797 134.589 211.798 134.722ZM212.555 138.508C212.691 138.375 212.759 138.109 212.758 137.843C212.757 137.378 212.689 137.179 212.552 137.113C212.416 137.047 212.28 137.047 212.211 136.981C212.144 137.114 212.076 137.313 212.076 137.446C212.076 137.645 212.077 137.778 212.077 137.911C212.077 138.044 212.078 138.177 212.146 138.31C212.214 138.443 212.283 138.509 212.487 138.508C212.555 138.508 212.555 138.508 212.555 138.508C212.555 138.508 212.487 138.508 212.555 138.508C212.555 138.575 212.555 138.575 212.556 138.708L212.692 138.574L212.555 138.508ZM212.406 132.196C212.406 132.196 212.337 132.129 212.406 132.196C212.269 132.129 212.201 132.196 212.202 132.329C212.202 132.395 212.202 132.395 212.202 132.395L212.202 132.462C212.27 132.395 212.27 132.395 212.27 132.395C212.27 132.395 212.338 132.395 212.338 132.329C212.406 132.328 212.406 132.262 212.406 132.196ZM215.552 138.037C215.552 137.705 215.551 137.439 215.551 137.239C215.55 136.974 215.481 136.708 215.481 136.442C215.209 136.775 214.937 137.108 214.733 137.44C214.462 137.84 214.326 138.239 214.327 138.704C214.327 138.837 214.396 139.036 214.533 139.169C214.873 138.836 215.145 138.636 215.281 138.636C215.349 138.569 215.485 138.369 215.552 138.037ZM215.559 141.36C215.559 141.094 215.49 140.828 215.353 140.629C215.217 140.696 215.149 140.895 215.15 141.161C215.15 141.227 215.15 141.294 215.15 141.36C215.151 141.427 215.287 141.493 215.423 141.493L215.559 141.36ZM215.271 133.984C215.271 134.05 215.271 134.05 215.271 133.984C215.203 134.05 215.203 134.05 215.203 134.117C215.203 134.183 215.272 134.25 215.408 134.249C215.476 134.249 215.476 134.249 215.476 134.249C215.408 134.249 215.476 134.183 215.544 134.116C215.544 133.917 215.475 133.85 215.339 133.851C215.339 133.917 215.339 133.917 215.339 133.917C215.271 133.917 215.271 133.984 215.271 133.984Z" fill="#00BBC4"/>
<path d="M102.901 127.309C102.698 127.908 102.495 128.506 102.224 128.972C101.952 129.504 101.817 130.103 101.818 130.701C101.819 130.767 101.819 130.9 101.819 130.966C101.819 131.099 101.819 131.166 101.82 131.232C101.82 131.565 101.685 131.897 101.481 132.363C101.278 132.762 101.143 133.36 101.144 134.091C101.076 134.224 101.009 134.357 100.805 134.624C100.601 134.823 100.465 135.089 100.261 135.422C100.058 135.755 99.9219 136.021 99.7182 136.354C99.5826 136.686 99.5152 137.019 99.5159 137.351C99.5162 137.484 99.5164 137.617 99.5849 137.749C99.6533 137.882 99.6536 138.015 99.6538 138.148C99.6541 138.281 99.6544 138.414 99.5864 138.48C99.2471 139.146 98.9763 139.944 98.7057 140.875C98.4351 141.806 98.1646 142.736 97.7577 143.668C97.419 144.599 97.0117 145.331 96.5362 145.996C96.0607 146.662 95.5161 146.929 94.8348 146.93C94.4941 146.931 94.2214 146.865 93.9486 146.733C93.6758 146.6 93.4028 146.401 93.198 146.203C92.9932 146.004 92.7883 145.805 92.6518 145.672C92.5151 145.473 92.4468 145.407 92.4466 145.274C92.4461 145.074 92.5817 144.742 92.9215 144.342C93.4649 143.544 93.8718 142.613 94.1419 141.482C94.4121 140.352 94.8186 139.288 95.3616 138.29C95.4293 138.09 95.497 137.891 95.4966 137.692C95.6304 136.495 95.9684 135.232 96.5106 133.902C97.0529 132.571 97.6636 131.374 98.4108 130.309C98.4787 130.176 98.5463 129.91 98.6136 129.511C98.8159 128.514 99.1547 127.649 99.6981 126.851C100.241 126.052 100.785 125.32 101.397 124.588C101.6 124.255 101.94 123.789 102.348 123.124C102.755 122.458 103.299 121.793 103.842 121.127C104.386 120.461 105.066 119.862 105.746 119.395C106.427 118.862 107.176 118.661 107.993 118.66C108.675 118.658 109.288 118.79 109.902 119.121C110.516 119.452 111.062 119.716 111.607 120.047L111.539 120.048C111.539 120.114 111.608 120.18 111.745 120.446C111.881 120.645 111.95 120.844 112.087 121.11C112.223 121.375 112.292 121.574 112.429 121.774C112.565 121.973 112.634 122.105 112.634 122.172C112.635 122.504 112.567 122.837 112.364 123.236C112.16 123.568 112.093 123.967 112.093 124.366C112.094 124.432 112.094 124.499 112.094 124.565C112.094 124.632 112.094 124.698 112.094 124.765C111.823 125.164 111.687 125.629 111.756 126.094C111.826 126.559 111.758 127.025 111.623 127.424C111.488 127.823 111.42 128.222 111.421 128.62C111.422 128.82 111.422 129.086 111.423 129.285C111.423 129.484 111.492 129.75 111.492 129.949C111.492 130.149 111.493 130.348 111.493 130.481C111.494 130.68 111.426 130.813 111.426 131.013C111.427 131.544 111.224 132.01 110.884 132.476C110.544 132.875 110.341 133.341 110.342 133.873C110.342 134.005 110.342 134.072 110.411 134.072C110.616 134.47 110.753 134.935 110.822 135.4C110.891 135.865 110.892 136.264 110.893 136.662C110.895 137.593 110.692 138.324 110.353 138.923C110.696 139.986 110.834 140.916 110.972 141.713C111.042 142.444 111.111 143.307 111.113 144.171C111.114 144.703 111.184 145.234 111.321 145.699C111.458 146.164 111.527 146.629 111.528 147.028C111.529 147.36 111.461 147.626 111.326 147.892C111.19 148.225 111.122 148.491 111.055 148.624C110.987 148.823 110.919 148.956 110.851 149.023C110.783 149.089 110.647 149.156 110.443 149.223C110.238 149.224 110.034 149.224 109.693 149.225C108.739 149.227 108.057 148.896 107.442 148.166C106.896 147.503 106.485 146.64 106.143 145.644C105.868 144.647 105.661 143.651 105.591 142.654C105.521 141.591 105.451 140.794 105.449 140.063C105.448 139.531 105.447 138.867 105.513 138.136C105.58 137.405 105.578 136.607 105.577 135.743C105.576 135.411 105.575 135.145 105.575 134.813C105.574 134.481 105.573 134.148 105.573 133.883C105.571 133.351 105.638 132.753 105.705 132.022C105.772 131.357 105.838 130.559 105.905 129.828C105.971 129.031 106.038 128.233 106.104 127.435C106.171 126.638 106.237 125.774 106.235 125.043C106.235 124.91 106.235 124.777 106.234 124.644C106.234 124.511 106.166 124.445 106.03 124.445C105.825 124.446 105.621 124.579 105.417 124.845C105.213 125.111 104.941 125.245 104.6 125.246C104.396 125.246 104.192 125.512 103.853 125.978C103.717 126.444 103.309 126.91 102.901 127.309C102.833 127.309 102.833 127.243 102.901 127.243C102.969 127.243 102.969 127.176 102.969 127.176L102.765 127.044C102.833 127.11 102.833 127.176 102.833 127.176C102.833 127.176 102.833 127.243 102.901 127.309Z" fill="#00BBC4"/>
</g>
<path fill-rule="evenodd" clip-rule="evenodd" d="M182.302 82.6361C182.302 80.1465 182.577 77.9335 182.853 75.4439C183.679 72.401 184.782 69.3582 186.986 66.3153C190.568 61.0595 197.731 57.74 205.446 56.0803C214.538 54.1439 224.457 54.6972 231.07 56.9102C236.029 58.5699 239.886 61.6128 242.366 66.0387C244.57 69.9114 245.948 74.8906 245.672 81.253C246.499 82.3594 247.326 83.7426 247.877 85.4023C248.428 87.062 248.428 88.9984 247.601 90.3815V90.6581L247.326 90.9347C242.366 96.1906 235.754 100.063 228.039 103.383C220.6 106.426 212.334 108.915 204.619 110.575C201.864 111.405 199.66 111.681 197.456 111.405C195.251 111.405 193.598 110.852 191.945 110.022C189.19 108.915 186.435 107.532 183.679 105.872C181.2 104.489 178.444 102.553 176.24 100.893C174.312 99.51 173.21 97.8503 172.658 95.914C172.107 93.9776 172.658 92.0412 174.863 89.8283L182.302 82.6361ZM244.846 85.6789C244.57 85.9555 244.57 86.2322 244.295 86.5088C243.744 87.3387 242.917 87.8919 242.091 88.4451C238.233 91.2114 233.825 93.4244 229.141 95.0841C224.457 96.7438 219.498 98.1269 214.538 99.51C214.538 99.51 213.987 99.51 213.436 99.7867C209.303 100.617 205.17 101.17 199.66 98.1269C199.109 98.4036 198.558 98.4036 198.007 98.4036C197.18 98.6802 196.629 98.6802 196.078 98.9568L195.527 99.2334H194.976C190.568 97.8503 187.812 95.3607 185.884 93.4243L185.608 93.1477V92.5945C185.333 91.7646 185.608 91.488 185.608 90.9347C185.608 90.6581 185.608 90.6581 185.608 90.3815C184.782 89.5516 184.231 88.7218 183.679 87.6153C183.404 87.3387 183.128 86.7854 183.128 86.5088L177.342 92.3179C176.24 93.701 175.689 94.8075 175.965 95.6373C176.24 96.7438 177.067 97.8503 178.444 98.9568C180.649 100.617 183.128 102.276 185.608 103.659C188.088 105.042 190.843 106.426 193.598 107.532C194.976 108.085 196.354 108.362 198.007 108.639C199.66 108.639 201.864 108.362 204.344 107.809C212.058 105.872 220.324 103.659 227.488 100.617C234.651 97.5737 240.713 93.9776 245.397 88.9984C245.672 88.1685 245.672 87.062 245.397 85.9555C245.121 86.2322 244.846 85.9555 244.846 85.6789ZM242.642 83.7426C242.917 76.827 241.815 71.5712 239.611 67.6985C237.407 63.8257 234.1 61.3361 229.692 59.6764C223.631 57.4634 214.263 57.1868 205.721 58.8465C198.833 60.5063 192.496 63.2725 189.19 67.9751C187.261 70.7413 186.159 73.5075 185.608 76.2738C185.057 79.04 185.057 81.8062 185.057 84.5724H184.782C185.057 85.1257 185.333 85.6789 185.608 86.2322C185.884 86.7854 186.159 87.3387 186.71 87.8919C186.986 84.0192 187.537 79.3166 188.914 75.1673C190.292 70.7413 192.221 66.8686 195.251 64.9322C198.007 63.2725 200.762 61.8894 204.068 60.7829C207.375 59.6764 210.956 59.1232 215.089 58.5699V59.953C210.956 60.2296 207.375 61.0595 204.344 61.8894C201.313 62.9959 198.558 64.379 196.078 66.0387C193.598 67.6985 191.67 71.2945 190.292 75.4439C188.639 80.9763 188.088 87.3387 188.088 91.7646C189.741 93.1477 191.67 95.0841 194.7 96.1906C194.7 90.9347 194.7 84.5724 196.078 78.7634C197.456 74.0608 199.384 69.9114 202.966 67.4218C210.956 61.3361 222.528 62.166 231.896 61.6128V62.9959C227.212 63.2725 223.079 63.5491 219.222 64.379C215.365 65.2088 212.058 66.592 209.028 69.0816C206.272 71.2945 204.068 75.1673 202.691 79.8698C201.037 85.1257 200.486 91.2114 201.038 95.6373C205.721 98.1269 209.303 97.5737 213.161 96.7438C213.436 96.7438 213.712 96.7438 214.263 96.4672C219.222 95.3607 223.906 93.9776 228.59 92.3179C232.998 90.6581 237.131 88.7218 240.989 85.9555C241.54 85.4023 242.091 85.1257 242.642 84.5724C242.366 84.2958 242.642 84.0192 242.642 83.7426ZM196.354 95.914C196.629 95.914 196.905 95.914 197.18 95.6373C198.007 95.3607 198.558 95.3607 199.109 95.0841H199.384C199.109 90.6581 199.66 84.5724 201.038 79.3166C202.415 74.614 204.619 70.1881 207.65 67.9751C209.854 66.3153 211.783 65.2088 214.263 64.379C210.13 65.2088 206.272 66.3153 203.517 68.5283C200.762 70.7413 198.833 74.8906 197.456 79.3166C196.078 84.8491 196.078 90.9347 196.354 95.914Z" fill="#00BBC4"/>
<defs>
<clipPath id="clip0">
<rect width="188.803" height="59.2766" fill="white" transform="matrix(0.999998 -0.00210446 0.00211313 0.999998 28.0356 101.816)"/>
</clipPath>
</defs>
</svg>
