<svg width="22" height="24" viewBox="0 0 22 24" fill="none" xmlns="http://www.w3.org/2000/svg">
<path d="M15.3935 2.868V20.868C15.3935 22.872 16.7974 24 18.3368 24C19.7407 24 21.28 23.052 21.28 20.868V3C21.28 1.152 19.8761 0 18.3368 0C16.7974 0 15.3935 1.272 15.3935 2.868ZM7.69676 12V20.868C7.69676 22.884 9.12528 24 10.64 24C12.0439 24 13.5832 23.052 13.5832 20.868V12.132C13.5832 10.284 12.1794 9.132 10.64 9.132C9.10065 9.132 7.69676 10.404 7.69676 12ZM2.94324 18.276C4.5688 18.276 5.88648 19.56 5.88648 21.132C5.88648 21.8926 5.57639 22.6221 5.02443 23.16C4.47246 23.6978 3.72384 24 2.94324 24C2.16265 24 1.41402 23.6978 0.862055 23.16C0.310091 22.6221 0 21.8926 0 21.132C0 19.56 1.31769 18.276 2.94324 18.276Z" fill="#00BBC4"/>
</svg>
