<svg width="25" height="24" viewBox="0 0 25 24" fill="none" xmlns="http://www.w3.org/2000/svg">
<path d="M24.2867 11.8034L13.0188 0.262836C12.9376 0.179517 12.8413 0.113416 12.7352 0.0683154C12.6291 0.0232147 12.5154 0 12.4005 0C12.2857 0 12.1719 0.0232147 12.0659 0.0683154C11.9598 0.113416 11.8634 0.179517 11.7823 0.262836L0.514294 11.8034C0.186021 12.1398 0 12.5969 0 13.0735C0 14.0633 0.785119 14.8679 1.75079 14.8679H2.93804V23.1028C2.93804 23.5991 3.32924 24 3.81344 24H10.6497V17.7194H13.7136V24H20.9876C21.4718 24 21.863 23.5991 21.863 23.1028V14.8679H23.0502C23.5153 14.8679 23.9612 14.6801 24.2895 14.3408C24.9706 13.6399 24.9706 12.5043 24.2867 11.8034Z" fill="#C4C4C4"/>
</svg>
