<svg width="26" height="24" viewBox="0 0 26 24" fill="none" xmlns="http://www.w3.org/2000/svg">
<path fill-rule="evenodd" clip-rule="evenodd" d="M25.11 11.2515C25.11 17.4656 19.4885 22.5031 12.555 22.5031C11.3115 22.5048 10.0732 22.3394 8.87168 22.0112C7.95516 22.487 5.85063 23.4 2.31012 23.9947C1.99625 24.0462 1.7577 23.7118 1.88168 23.4129C2.43724 22.0691 2.93944 20.2785 3.0901 18.6454C1.16761 16.6684 0 14.0805 0 11.2515C0 5.03748 5.6215 0 12.555 0C19.4885 0 25.11 5.03748 25.11 11.2515ZM7.84688 11.2515C7.84688 11.6778 7.68153 12.0867 7.38722 12.3881C7.0929 12.6896 6.69372 12.8589 6.2775 12.8589C5.86128 12.8589 5.4621 12.6896 5.16778 12.3881C4.87347 12.0867 4.70813 11.6778 4.70813 11.2515C4.70813 10.8252 4.87347 10.4164 5.16778 10.115C5.4621 9.81353 5.86128 9.64418 6.2775 9.64418C6.69372 9.64418 7.0929 9.81353 7.38722 10.115C7.68153 10.4164 7.84688 10.8252 7.84688 11.2515ZM14.1244 11.2515C14.1244 11.6778 13.959 12.0867 13.6647 12.3881C13.3704 12.6896 12.9712 12.8589 12.555 12.8589C12.1388 12.8589 11.7396 12.6896 11.4453 12.3881C11.151 12.0867 10.9856 11.6778 10.9856 11.2515C10.9856 10.8252 11.151 10.4164 11.4453 10.115C11.7396 9.81353 12.1388 9.64418 12.555 9.64418C12.9712 9.64418 13.3704 9.81353 13.6647 10.115C13.959 10.4164 14.1244 10.8252 14.1244 11.2515ZM18.8325 12.8589C19.2487 12.8589 19.6479 12.6896 19.9422 12.3881C20.2365 12.0867 20.4019 11.6778 20.4019 11.2515C20.4019 10.8252 20.2365 10.4164 19.9422 10.115C19.6479 9.81353 19.2487 9.64418 18.8325 9.64418C18.4163 9.64418 18.0171 9.81353 17.7228 10.115C17.4285 10.4164 17.2631 10.8252 17.2631 11.2515C17.2631 11.6778 17.4285 12.0867 17.7228 12.3881C18.0171 12.6896 18.4163 12.8589 18.8325 12.8589Z" fill="#00BBC4"/>
</svg>
