<svg width="25" height="24" viewBox="0 0 25 24" fill="none" xmlns="http://www.w3.org/2000/svg">
<path d="M12.5 0C10.7955 0 9.46378 0.630952 8.50497 1.89286C7.54616 3.15476 7.06676 4.76786 7.06676 6.73214C7.05492 9.17262 7.83617 11.1071 9.41051 12.5357C9.61174 12.7262 9.68277 12.9702 9.62358 13.2679L9.2152 14.125C9.08499 14.4107 8.89264 14.6339 8.63814 14.7946C8.38364 14.9554 7.84801 15.1845 7.03125 15.4821C6.99574 15.494 6.24704 15.7381 4.78516 16.2143C3.32327 16.6905 2.54498 16.9524 2.45028 17C1.45597 17.4167 0.804924 17.8512 0.497159 18.3036C0.16572 19.0536 0 20.9524 0 24H25C25 20.9524 24.8343 19.0536 24.5028 18.3036C24.1951 17.8512 23.544 17.4167 22.5497 17C22.455 16.9524 21.6767 16.6905 20.2148 16.2143C18.753 15.7381 18.0043 15.494 17.9688 15.4821C17.152 15.1845 16.6164 14.9554 16.3619 14.7946C16.1074 14.6339 15.915 14.4107 15.7848 14.125L15.3764 13.2679C15.3172 12.9702 15.3883 12.7262 15.5895 12.5357C17.1638 11.1071 17.9451 9.17262 17.9332 6.73214C17.9332 4.76786 17.4538 3.15476 16.495 1.89286C15.5362 0.630952 14.2045 0 12.5 0Z" fill="#C4C4C4"/>
</svg>
